<?xml version="1.0" encoding="utf-8"?>
<!-- Generator: Adobe Illustrator 20.0.0, SVG Export Plug-In . SVG Version: 6.00 Build 0)  -->
<svg version="1.1" id="Layer_1" xmlns="http://www.w3.org/2000/svg" xmlns:xlink="http://www.w3.org/1999/xlink" x="0px" y="0px"
	 viewBox="0 0 222.2 217.8" style="enable-background:new 0 0 222.2 217.8;" xml:space="preserve">
<style type="text/css">
	.st0{opacity:0.19;fill:#FFFFFF;enable-background:new    ;}
	.st1{fill:#1B0A3F;}
	.st2{fill:#5857A5;}
	.st3{fill:#FFFFFF;}
	.st4{fill:#DBC251;}
	.st5{fill:#FCC8AF;}
	.st6{opacity:0.21;fill:#EE7EA1;enable-background:new    ;}
	.st7{fill:none;stroke:#000000;stroke-width:5;stroke-linecap:square;stroke-linejoin:round;stroke-miterlimit:10;}
	.st8{fill:#C97B5D;}
	.st9{fill:none;stroke:#7DC242;stroke-width:5;stroke-linecap:square;stroke-linejoin:round;stroke-miterlimit:10;}
	.st10{fill:#973028;}
</style>
<g id="Layer_2">
	<path class="st0" d="M111.1,211.6c-56.6,0-102.7-46.1-102.7-102.7S54.5,6.2,111.1,6.2s102.7,46.1,102.7,102.7
		S167.7,211.6,111.1,211.6z"/>
</g>
<g id="Layer_1_1_">
	<g>
		<path class="st1" d="M31.4,169.6c0,0,50.8,82.3,148.5,12.1c0,0-9.8-11-40.9-17l-0.5-4.9c0,0-29.8-10-69.5,12.3l-11.5-12.7
			L31.4,169.6"/>
		<path class="st2" d="M114.2,209.6l-6.3-50.8c-0.2-1.4,0.8-2.6,2.2-2.8c1.4-0.2,2.6,0.8,2.8,2.2l6.3,50.8
			C119.4,210.3,114.4,210.8,114.2,209.6z"/>
		<path class="st2" d="M179.9,184.1c-0.5,0-0.9-0.1-1.4-0.4l-5.9-3.8c-8.2-5.4-22.2-10.2-29.2-10.8c-3.4-0.3-5.7-1.5-7-3.6
			c-0.1-0.2-0.2-0.4-0.3-0.5L115,182.6c-0.8,0.6-1.8,0.8-2.7,0.3L82,167.6c-1.2-0.6-1.7-2.1-1.1-3.4c0.6-1.2,2.1-1.7,3.4-1.1
			l28.9,14.6l23.9-19.9c0.9-0.7,2.2-0.8,3.1-0.1c0.9,0.7,1.3,1.9,0.8,3c-0.1,0.3-0.4,1.5,0,2.2c0.4,0.6,1.5,1.1,3.1,1.2
			c7.6,0.7,22.4,5.6,31.5,11.6l5.9,3.8c1.2,0.8,1.5,2.3,0.7,3.5C181.5,183.8,180.7,184.1,179.9,184.1z"/>
		<path class="st2" d="M64.7,200.6c-1.2,0-2.3-0.9-2.5-2.2c-1.5-11.8-5.7-19.9-12.3-24c-6.5-4-14-3.2-17.7-2.4
			c-1.5,0.3-1.6-5.1-1.6-5.1l24.6-9.5c1.2-0.5,2.7,0,3.3,1.1c0.7,1.3,0,2.9-1.3,3.5l-12.7,4.9c2.7,0.6,5.4,1.6,8.1,3.2
			c8,4.9,12.9,14.2,14.6,27.6c0.2,1.4-0.8,2.6-2.2,2.8C64.9,200.5,64.8,200.6,64.7,200.6z"/>
	</g>
	<path class="st3" d="M166,165.4c-31.7-12.5-67.3-10-97,6.7c0,0-67.2-55.5-9.7-76.9C124.5,70.9,166,165.4,166,165.4z"/>
	<path class="st4" d="M69,174.6c-0.6,0-1.1-0.2-1.6-0.6c-0.4-0.3-9.5-7.9-18.2-18.6c-12-14.7-17.1-27.7-15.3-38.6
		c1.8-10.5,10-18.6,24.6-24c27.7-10.3,55.5-1.1,80.5,26.7c18.6,20.7,28.9,43.9,29.3,44.9c0.4,0.9,0.2,2-0.5,2.7s-1.8,1-2.7,0.6
		c-31.1-12.2-65.7-9.9-94.9,6.5C69.9,174.4,69.5,174.6,69,174.6z M80.8,93.6c-6.8,0-13.6,1.3-20.5,3.9
		c-12.7,4.7-19.9,11.5-21.4,20.2C35.5,137.9,63,163.5,69.4,169c28.3-15.4,61.3-18.2,91.7-8.1c-4.2-8.1-13.1-24-25.9-38.2
		C117.7,103.4,99.5,93.6,80.8,93.6z"/>
	<path class="st5" d="M143.5,98.6c0.5-2.1-1.7-4.7-1.5-6.7c0.3-2.4,3.2-4.3,3.2-6.7c0-3.5-0.4-6.9-1.1-10.2
		c-4.3-19.7-20.9-34.8-42.7-37.7c-2.2,0.2-4.4,0.8-6.4,1.5c-6.1,2.1-11.3,6-16.6,10.5c-3,4-6,8-8,13c-3,7-3,15-2,22c1,4,0,8,2,11v-1
		c3,8,5,17,7,24.6c0.2,0.6,0.5,1.3,0.8,1.9c0.4,3.2,1,6.4,1.8,9.6c0.7,2.9,3.6,3.9,6.1,3.4c0.1,0.1,0.2,0.2,0.4,0.3
		c4.6,5.1,10.2,9.4,15.8,12.2c0.5,0.2,1,0.4,1.4,0.5c0.6,0.4,1.2,0.8,1.9,1.2c3.8,2.3,7,4.2,11.7,3.1c2.4-0.6,5.3-0.4,7.3-1.6
		c1.9-1.2,12.6-20.1,13-22.9c-0.1-2.2,3.7-10,5.6-11.5c1.4-1.6,0.6-3.8,1.1-6.6C144.6,105,143.6,101.3,143.5,98.6z"/>
	<g>
		<path class="st6" d="M144.2,108.4c0,5.3-1.3,5.3-2.9,10c-1.7,5-9.6-4.3-9.6-9.6s4.3-9.6,9.6-9.6
			C146.5,99.3,144.2,103.2,144.2,108.4z"/>
		<circle class="st6" cx="99.3" cy="108.9" r="9.6"/>
	</g>
	<path d="M108.2,39.5c-8.6-1.5-17.1,0-24.3,3.9c-0.9-0.7-2.2-0.8-3.1,0.3c-1.3,1.5-2.5,3-3.7,4.5c-3.2,2.9-6,6.4-8,10.5
		c-0.6,0.3-1,0.7-1.3,1.4s-0.5,1.4-0.8,2.2c-1.7,3.6-3,7.2-3.9,11.1C63,73.7,63,74,63,74.3c-0.7,2.6-1.5,5.2-2.1,7.8
		c-0.7,1.7-1.4,3.4-2.2,5.1c-1.8,1.3-3.9,2.4-6,3.5c-3,1.5-7.1,2.7-8.6,6c-0.6,1.2-0.2,2.5,0.7,3.2c-0.1,0.2-0.2,0.4-0.2,0.7
		c0,0.2,0,0.4-0.1,0.6c-1.4,1.8-1.4,3.5-0.7,5c0.1,0.5,0.3,1,0.5,1.4c-0.2,0.7,0,1.5,0.7,2.2c2.6,2.5,5.5,4.2,8.9,5.4
		c0.8,0.3,1.5,0.1,2-0.2c0.9,0.3,1.7,0.6,2.6,0.9c4.3,1.2,5.8,0.1,9.4-2.1c3.7-2.3,7-3.9,9.1-7.9s2.6-8.7,3.2-13.1
		c0.6-5.1,0.9-10.2,1-15.3c0.1-5.2-1.4-12.2,0.1-17.1c1.5-5.2,6.3-10.7,11.2-12.9c4.7-2.1,10-2.5,15.1-2.8
		C110.2,44.2,111.2,40,108.2,39.5z"/>
	<path d="M153.7,90c1.3-3-0.4-6.9-2.1-10.1c0-0.1-0.1-0.2-0.1-0.2c-0.1-0.2-0.2-0.4-0.3-0.5c-0.4-0.7-0.8-1.4-1.1-2.1
		c-0.5-1.1-1.6-1.4-2.6-1.1c0-0.1-0.1-0.3-0.1-0.4c-0.1-0.3-0.2-0.5-0.3-0.7c0-0.1,0-0.1,0-0.2c-0.1-3.2-5.1-3.2-5,0
		c0,1,0.1,2,0.1,3c-0.4,2.4-0.6,4.7-0.3,7.3c0.2,1.5,1.2,2.3,2.3,2.4v0.1l0,0l0,0c-1.6,3.7-1.7,7.4-1.4,11.5
		c0.2,2.7,3.7,3.1,4.7,1.3c0.1,0,0.3,0,0.4,0c2.9,0,4.2-2.3,4.6-4.9C153.3,93.7,153.7,91.9,153.7,90z"/>
	<path id="hair_outline_5_" class="st7" d="M137.6,61.2c-2-2.9-4.2-5-6.1-7.2c-4.2-5.1-16.8-7.9-16.8-7.9s-19.3-3.3-25.2,1.3
		c-5.8,4.7-10.8,15-7.8,29.2c2.3,10.7,1.7,24.1-6,32.5c-2.5,2.7-5.8,4.9-10,6.3c-20.8,6.9-29.5-12.4-20.1-20.3
		c0.9-0.8,2-1.3,3.1-1.7c2.5-1,9.2-4.1,11.4-10.7c2.7-8.1,3.2-45.7,45.3-43c0.5,0,1,0.1,1.5,0.2c2.3,0.4,8.9,1.9,15.7,5.5
		c4.5,2.4,9,5.7,12.5,10.4c10,13.3,8.7,14,10.7,15.7s9.7,12.5,7.8,20.7c-1.8,8.2-9,9.5-9,9.5"/>
	<path id="hair_outline_4_" class="st7" d="M137.6,61.2c-2-2.9-4.2-5-6.1-7.2c-4.2-5.1-16.8-7.9-16.8-7.9s-19.3-3.3-25.2,1.3
		c-5.8,4.7-10.8,15-7.8,29.2c2.3,10.7,1.7,24.1-6,32.5c-2.5,2.7-5.8,4.9-10,6.3c-20.8,6.9-29.5-12.4-20.1-20.3
		c0.9-0.8,2-1.3,3.1-1.7c2.5-1,9.2-4.1,11.4-10.7c2.7-8.1,3.2-45.7,45.3-43c0.5,0,1,0.1,1.5,0.2c2.3,0.4,8.9,1.9,15.7,5.5
		c4.5,2.4,9,5.7,12.5,10.4c10,13.3,8.7,14,10.7,15.7s9.7,12.5,7.8,20.7c-1.8,8.2-9,9.5-9,9.5"/>
	<path class="st8" d="M113.2,153c-3.6,0-6.9-0.7-9.4-1.6c-0.1,0-0.2-0.1-0.3-0.1c-15.3-8.1-23.1-14-26.4-25.9
		c-2-7.2-2.4-10.4-3-14.9l-0.3-2.5l5-0.7l0.3,2.5c0.6,4.3,1,7.4,2.9,14.3c2.8,10.2,9.6,15.2,23.8,22.7c1.7,0.6,17.4,5.6,23.8-10
		l7.7-18.7c1.7-3.8,5.6-15,3.2-21.1c-1.8-4.6-1.6-6.3-0.7-8.9c0.6-1.6,1.3-3.8,0.7-10.5c-0.5-5.8-1.9-10.3-4.2-14l-1.3-2.1l4.2-2.6
		l1.3,2.1c2.7,4.4,4.3,9.5,4.9,16.1c0.7,7.7-0.3,10.6-1,12.6c-0.5,1.5-0.7,2,0.6,5.4c3.7,9.4-2.9,24.3-3.2,24.9l-7.6,18.6
		C129.6,149.9,120.8,153,113.2,153z"/>
	<path class="st9" d="M133.6,54"/>
	<path class="st10" d="M111.1,211.6c-56.6,0-102.7-46.1-102.7-102.7S54.5,6.2,111.1,6.2s102.7,46.1,102.7,102.7
		S167.7,211.6,111.1,211.6z M111.1,11.2c-53.9,0-97.7,43.8-97.7,97.7s43.8,97.7,97.7,97.7s97.7-43.8,97.7-97.7
		S164.9,11.2,111.1,11.2z"/>
	<path d="M120,144.6c-0.7,0-1.3-0.3-1.8-0.7l-5.7-5.7c-0.7-0.7-0.9-1.8-0.5-2.7s1.3-1.5,2.3-1.5h9.2c0.9,0,1.7,0.5,2.2,1.3
		s0.4,1.8-0.1,2.5l-3.5,5.7c-0.4,0.6-1.1,1.1-1.8,1.2C120.2,144.5,120.1,144.6,120,144.6z"/>
	<path d="M114.4,131.7c-1.9,0-3.7-0.2-5.6-0.5l-8.1-1.4c-1.2-0.2-2.1-1.3-2.1-2.5s0.9-2.3,2.1-2.5l16.8-2.7c1.1-0.2,2.1,0.4,2.6,1.3
		l1.2-0.8c0.6-0.4,1.4-0.6,2.1-0.4l5.2,1.3c1,0.3,1.8,1.1,1.9,2.2c0.1,1-0.5,2-1.4,2.5C124.4,130.5,119.4,131.7,114.4,131.7z"/>
	<path d="M126.1,119.9L126.1,119.9l-10-0.4c-1.4,0.1-2.8-0.6-3.7-1.6c-0.9-1.1-1.2-2.7-0.8-4.1l1.4-4.8l4.8,1.4l-1.2,4.2l9.4,0.4
		c0.4-0.1,0.6-0.3,0.7-0.5s0.3-0.5,0.2-0.9l-7.4-21.1c-0.6-1.6-1.5-3-2.8-4c-12.4-9.5-23.4-1.7-23.8-1.4l-2,1.5l-3-4l2-1.5
		c0.1-0.1,3.7-2.7,9.1-3.8c5-1,12.7-0.9,20.7,5.2c2.1,1.6,3.6,3.7,4.5,6.3l7.4,21.2v0.1c0.5,1.8,0.2,3.7-0.8,5.2
		C129.7,118.8,128.1,119.8,126.1,119.9C126.2,119.9,126.2,119.9,126.1,119.9z"/>
	<path d="M122.5,96.8l-2.4-4.4l2.2-1.2c1.3-0.7,12.7-6.7,18.1-0.7l1.7,1.9l-3.7,3.3l-1.7-1.9c-2.1-2.4-9.1,0.2-11.9,1.8L122.5,96.8z
		"/>
	<circle cx="134.6" cy="95.1" r="4.4"/>
	<path d="M113.8,96.9l-2-1.5c-5.5-4.4-12.6,0.1-12.7,0.1L97,96.9l-2.7-4.2l2.1-1.4c0.4-0.3,10.2-6.4,18.5,0.1l2,1.5L113.8,96.9z"/>
	<circle cx="107.5" cy="95" r="4.4"/>
	<path d="M120.7,90.8l-3-4l2-1.5c9-6.9,17.5-6.3,23-4.6l2.4,0.7l-1.4,4.8l-2.4-0.7c-4.4-1.3-11.3-1.8-18.5,3.8L120.7,90.8z"/>
	<path id="hair_outline_2_" class="st7" d="M131.5,54c-4.2-5.1-16.8-7.9-16.8-7.9s-19.3-3.3-25.2,1.3c-5.8,4.7-10.8,15-7.8,29.2
		c2.3,10.7,1.7,24.1-6,32.5c-2.5,2.7-5.8,4.9-10,6.3c-20.8,6.9-29.5-12.4-20.1-20.3c0.9-0.8,2-1.3,3.1-1.7c2.5-1,9.2-4.1,11.4-10.7
		c2.7-8.1,3.2-45.7,45.3-43c0.5,0,1,0.1,1.5,0.2c2.3,0.4,8.9,1.9,15.7,5.5"/>
</g>
</svg>
