<?xml version="1.0" encoding="utf-8"?>
<!-- Generator: Adobe Illustrator 20.0.0, SVG Export Plug-In . SVG Version: 6.00 Build 0)  -->
<svg version="1.1" xmlns="http://www.w3.org/2000/svg" xmlns:xlink="http://www.w3.org/1999/xlink" x="0px" y="0px"
	 viewBox="0 0 105.1 105.1" style="enable-background:new 0 0 105.1 105.1;" xml:space="preserve">
<style type="text/css">
	.st0{fill:#E64C3C;}
</style>
<g id="Layer_1">
</g>
<g id="Layer_2">
	<path d="M99.1,94.3L72.5,67.7C84.8,52.9,84,30.8,70.2,17C55.4,2.2,31.5,2.2,16.8,17c-14.7,14.7-14.7,38.7,0,53.4
		c7.4,7.4,17,11,26.7,11c8.6,0,17.1-2.9,24.1-8.7l26.6,26.6L99.1,94.3z M21.7,65.4c-12-12-12-31.5,0-43.5c6-6,13.9-9,21.7-9
		c7.9,0,15.7,3,21.7,9c12,12,12,31.5,0,43.5C53.2,77.3,33.7,77.3,21.7,65.4z"/>
	<g>
		<path class="st0" d="M25.7,59.5l4.4-6c3.1,3.3,7.9,6.2,14.1,6.2c6.4,0,9-3.2,9-6.1c0-9.4-26.1-3.6-26.1-20
			c0-7.4,6.5-13.1,16.3-13.1c7,0,12.6,2.2,16.8,6.2l-4.5,5.8c-3.5-3.5-8.2-5.1-12.9-5.1c-4.6,0-7.6,2.2-7.6,5.6
			c0,8.3,26,3.2,26,19.8c0,7.4-5.2,13.8-17.3,13.8C35.6,66.6,29.6,63.7,25.7,59.5z"/>
	</g>
</g>
</svg>
